<svg xmlns="http://www.w3.org/2000/svg" viewBox="0 0 1299.09 145.37"><defs><style>.cls-1{fill:#5088d8;}</style></defs><g id="Layer_2" data-name="Layer 2"><g id="Layer_1-2" data-name="Layer 1"><path class="cls-1" d="M1299.09,145.37H0V24.59l39.58.55A68.22,68.22,0,0,0,57.46,23c40.89-10.48,70-16.78,112.39-4.8l13.91,3.93A31.24,31.24,0,0,0,201.17,22L260.3,4.4A70.31,70.31,0,0,1,299.05,4l65.61,18.05a38.88,38.88,0,0,0,7.49.82,96.11,96.11,0,0,0,45.57-9.61L441.85,1.64A31.26,31.26,0,0,1,459.77,1l81.3,21.3a31.21,31.21,0,0,0,17.22-.4l17.09-5.33a224.31,224.31,0,0,1,116.25-4.68l29.45,6.65a144.93,144.93,0,0,0,53.72,1.93L886.43,3.57A186.5,186.5,0,0,1,951,5.08l88.57,17.68a31.32,31.32,0,0,0,17.85-1.68l43.6-17.63a31.25,31.25,0,0,1,23.71.11l32.08,13.29c11.4,4.73,21.45,2.88,30.53-5.62l1.82-1.87c8-7.5,27.6,25.26,60.51,22.92l49.38-7.69Z"/></g></g></svg>