<svg xmlns="http://www.w3.org/2000/svg" viewBox="0 0 1539.77 190.84"><defs><style>.cls-1{fill:#fff;}</style></defs><g id="Layer_2" data-name="Layer 2"><g id="Layer_1-2" data-name="Layer 1"><path class="cls-1" d="M1539.77,190.84H0V34.5s35.16-.66,78.43-5.82,71.45,22.22,99.86,16.1,39.88-13.48,70.51-3.43S291.09,66,337.42,58.5l51.37-19.28a197.87,197.87,0,0,1,61,.05l57.64,9a197.9,197.9,0,0,0,60.25.16L633,38.57a197.49,197.49,0,0,1,54-.72L805.32,52.54a197.82,197.82,0,0,0,57.23-1.25l71.6-12a197.9,197.9,0,0,1,56.57-1.32l114.64,13.83a83.16,83.16,0,0,0,43.88-6.64c27.53-12.31,84.25-48.17,144.13-44.9,53.84,2.94,64,17.44,103.77,26.51,59.66,13.62,142.63,7.78,142.63,7.78Z"/></g></g></svg>