<svg xmlns="http://www.w3.org/2000/svg" viewBox="0 0 4282.85 239.15"><defs><style>.cls-1{fill:#fff;opacity:0.5;}</style></defs><g id="Layer_2" data-name="Layer 2"><g id="Layer_1-2" data-name="Layer 1"><path class="cls-1" d="M4282.85,134.32V62h0V48.64l-10.5.37c-6.92-.88-17.46,0-32.27-1.23C4025.65,29.88,4028.77,3.7,3812.2,3.7S3595.63,48,3379.07,48,3162.5,3.7,2945.93,3.7,2724.39,61,2509,47.89C2314.83,36.12,2291.89-3,2142.39.18,1992.89-3,1970,36.12,1775.83,47.89,1560.39,61,1555.42,3.7,1338.84,3.7S1122.28,48,905.71,48,689.14,3.7,472.58,3.7,259.13,29.88,44.7,47.78c-15,1.25-25.58.33-32.49,1.25L0,48.64V239.15H4282.85V134.32Z"/></g></g></svg>