<svg xmlns="http://www.w3.org/2000/svg" viewBox="0 0 5582.55 239.15"><defs><style>.cls-1{fill:#5e97ff;}</style></defs><g id="Layer_2" data-name="Layer 2"><g id="Layer_1-2" data-name="Layer 1"><path class="cls-1" d="M5582.55,134.32V62h0V48.64l-13.69.37c-9-.88-22.75,0-42.06-1.23C5247.3,29.88,5251.36,3.7,4969.08,3.7S4686.79,48,4404.5,48,4122.21,3.7,3839.93,3.7,3551.16,61,3270.33,47.89C3017.3,36.12,2987.4-3,2792.53.18,2597.66-3,2567.77,36.12,2314.73,47.89,2033.91,61,2027.44,3.7,1745.14,3.7S1462.85,48,1180.57,48,898.28,3.7,616,3.7,337.77,29.88,58.26,47.78C38.75,49,24.92,48.11,15.91,49L0,48.64V239.15H5582.55V134.32Z"/></g></g></svg>